<svg xmlns="http://www.w3.org/2000/svg" width="30.574" height="25.943" viewBox="0 0 30.574 25.943"><g transform="translate(1 1)"><path d="M341.867,192.489v-3.007h3.217v-2.476h-3.217V184h-2.65v3.007H336v2.476h3.217v3.007Z" transform="translate(-316.011 -176.273)" fill="none" stroke="#e08fb8" stroke-width="1"/><path d="M57.036,87.943a20.863,20.863,0,0,0-.143-2.507c-.117-.68-1.1-1.577-5.288-3.049-4.121-1.447-3.866-.742-3.866-3.4,0-1.727.919-.723,1.506-4,.228-1.291.411-.43.906-2.5.261-1.085-.176-1.166-.124-1.683s.1-.979.2-2.039C50.347,67.448,49.075,64,44.518,64s-5.829,3.448-5.7,4.764c.1,1.054.15,1.521.2,2.039s-.385.6-.124,1.683c.5,2.064.678,1.2.906,2.5.587,3.28,1.506,2.276,1.506,4,0,2.669.254,1.964-3.866,3.4-4.186,1.465-5.177,2.369-5.288,3.049a19.829,19.829,0,0,0-.15,2.5H57.036Z" transform="translate(-32 -64)" fill="none" stroke="#e08fb8" stroke-width="2"/></g></svg>