<svg xmlns="http://www.w3.org/2000/svg" width="25.5" height="24" viewBox="0 0 25.5 24"><g transform="translate(-14.006 -18.884)"><path d="M39,27.078H14.515a.509.509,0,0,1-.462-.3.535.535,0,0,1,.072-.558L20,19.07a.5.5,0,0,1,.39-.186H33.126a.5.5,0,0,1,.39.186l5.87,7.147a.535.535,0,0,1,.072.558A.509.509,0,0,1,39,27.078ZM15.613,26.031H37.9l-5.01-6.1H20.624Z" transform="translate(0)" fill="#e08fb8"/><path d="M27.1,62.972,14.475,47.578l.78-.674L27.1,61.347,38.949,46.9l.78.674Z" transform="translate(-0.347 -20.088)" fill="#e08fb8"/><path d="M47.692,42.629h0a.524.524,0,0,1-.494-.358l-5.26-15.3a.548.548,0,0,1,.072-.5l5.26-7.332a.534.534,0,0,1,.843,0l5.261,7.332a.548.548,0,0,1,.072.5l-5.261,15.3A.524.524,0,0,1,47.692,42.629ZM43.018,26.876l4.674,13.6,4.675-13.6-4.674-6.516Z" transform="translate(-20.936 -0.034)" fill="#e08fb8"/><rect width="7.26" height="1.047" transform="translate(20.9 19.315) rotate(79.869)" fill="#e08fb8"/><rect width="1.047" height="7.26" transform="translate(32.613 19.315) rotate(10.137)" fill="#e08fb8"/></g></svg>