<svg xmlns="http://www.w3.org/2000/svg" width="12.943" height="14.502" viewBox="0 0 12.943 14.502"><g transform="translate(0.753 0.836)"><path d="M.295,1.538C.485,1.2,1.535-.036,2.284,0a.969.969,0,0,1,.583.335h0A10.937,10.937,0,0,1,4.352,2.5c.147.757-.693,1.194-.436,1.957A6.188,6.188,0,0,0,7.3,8.1c.709.277,1.114-.625,1.818-.468a10.231,10.231,0,0,1,2.011,1.6h0a1.089,1.089,0,0,1,.311.627c.028.848-1.19,1.994-1.428,2.14a1.959,1.959,0,0,1-2.182-.022C5.343,10.858,1.369,6.662.315,3.886A2.394,2.394,0,0,1,.295,1.538Z" transform="translate(0 0.596)" fill="none" stroke="#e08fb8" stroke-linecap="round" stroke-linejoin="round" stroke-miterlimit="10" stroke-width="1.5"/><path d="M0,0A4.85,4.85,0,0,1,4.03,4.49" transform="translate(6.974)" fill="none" stroke="#e08fb8" stroke-linecap="round" stroke-linejoin="round" stroke-miterlimit="10" stroke-width="1.5"/><path d="M0,0A3.031,3.031,0,0,1,2.252,2.513" transform="translate(6.974 1.984)" fill="none" stroke="#e08fb8" stroke-linecap="round" stroke-linejoin="round" stroke-miterlimit="10" stroke-width="1.5"/></g></svg>