<svg xmlns="http://www.w3.org/2000/svg" width="30" height="30" viewBox="0 0 30 30"><g transform="translate(-8.27 -8.27)"><path d="M25.109,37.358A20.939,20.939,0,0,1,14.343,26.446l2.8-1.891a17.5,17.5,0,0,1-1.178-6.285H9.27A24.275,24.275,0,0,0,33.545,42.545v-6.7a17.5,17.5,0,0,1-6.478-1.258Z" transform="translate(0 -5.275)" fill="none" stroke="#e08fb8" stroke-linecap="round" stroke-linejoin="round" stroke-width="2"/><path d="M30.73,21.27a7.99,7.99,0,0,1,7.99,7.99" transform="translate(-8.626 -4.824)" fill="none" stroke="#e08fb8" stroke-linecap="round" stroke-linejoin="round" stroke-width="2"/><path d="M30.73,15.27A11.984,11.984,0,0,1,42.714,27.254" transform="translate(-9.439 -2.005)" fill="none" stroke="#e08fb8" stroke-linecap="round" stroke-linejoin="round" stroke-width="2"/><path d="M30.73,9.27A15.979,15.979,0,0,1,46.709,25.249" transform="translate(-9.439)" fill="none" stroke="#e08fb8" stroke-linecap="round" stroke-linejoin="round" stroke-width="2"/></g></svg>