<svg xmlns="http://www.w3.org/2000/svg" width="48" height="46.001" viewBox="0 0 48 46.001"><path d="M24.965,1a1,1,0,0,0-.582.213L4.422,16.836,1.383,19.213a1,1,0,1,0,1.234,1.574L4,19.705V46a1,1,0,0,0,1,1H45a1,1,0,0,0,1-1v-26.3l1.383,1.082a1,1,0,1,0,1.234-1.574l-2.984-2.334L25.617,1.213A1,1,0,0,0,24.965,1ZM25,3.27,44,18.139V45H6V18.139ZM25,16a2.231,2.231,0,0,0-1.105.293l-.01.006-.012.006s-3.594,2.17-7.193,4.391c-1.8,1.11-3.6,2.234-4.961,3.109-.68.438-1.249.811-1.664,1.1-.207.144-.374.265-.514.377a2.263,2.263,0,0,0-.207.184,1.138,1.138,0,0,0-.137.16.8.8,0,0,0-.2.545v0c-.037.635.175.667.262.781a2.826,2.826,0,0,0,.262.295c.188.189.419.4.693.631.239.205.572.464.859.7v4.65a2,2,0,0,0-.4,3.273A1.945,1.945,0,0,0,10,37.969C10,39.4,12,42,12,42s2-2.555,2-4.031a1.945,1.945,0,0,0-.68-1.469,2,2,0,0,0-.244-3.184v-3.16c.867.664,1.907,1.458,1.924,1.471v1.064h.035A1.419,1.419,0,0,0,15,33a1.629,1.629,0,0,0,.447,1.08,2.817,2.817,0,0,0,.795.584,8.834,8.834,0,0,0,2.178.726A31.592,31.592,0,0,0,25,36a31.592,31.592,0,0,0,6.58-.609,8.834,8.834,0,0,0,2.178-.726,2.817,2.817,0,0,0,.795-.584A1.629,1.629,0,0,0,35,33a1.419,1.419,0,0,0-.035-.309H35V31.625c.027-.02,1.405-1.048,2.813-2.15.711-.557,1.421-1.125,1.969-1.6.274-.235.506-.442.693-.631a2.827,2.827,0,0,0,.262-.295c.086-.114.3-.146.262-.781a.791.791,0,0,0-.2-.545,1.172,1.172,0,0,0-.137-.162,2.205,2.205,0,0,0-.205-.182c-.14-.112-.306-.233-.514-.377-.415-.289-.984-.664-1.664-1.1-1.361-.876-3.161-2-4.961-3.109-3.6-2.221-7.2-4.391-7.2-4.391l-.012-.006-.01-.006A2.239,2.239,0,0,0,25,16Zm0,2a.231.231,0,0,1,.113.031c.019.012,3.579,2.159,7.158,4.367,1.795,1.107,3.59,2.228,4.93,3.09.542.349.939.616,1.3.859l-.018.016c-.5.433-1.2.992-1.9,1.539-.788.617-1.04.8-1.58,1.209v-1.2a1.593,1.593,0,0,0-.463-1.08,2.8,2.8,0,0,0-.795-.559,9.084,9.084,0,0,0-2.17-.691A32.971,32.971,0,0,0,25,25a32.971,32.971,0,0,0-6.572.582,9.084,9.084,0,0,0-2.17.691,2.8,2.8,0,0,0-.795.559A1.593,1.593,0,0,0,15,27.912v1.2c-.54-.409-.792-.592-1.58-1.209-.7-.547-1.4-1.106-1.9-1.539-.008-.007-.01-.011-.017-.017.358-.243.755-.509,1.3-.858,1.34-.862,3.135-1.983,4.93-3.09,3.578-2.208,7.133-4.355,7.154-4.367h0A.237.237,0,0,1,25,18Zm0,9a31.406,31.406,0,0,1,6.156.539,7.748,7.748,0,0,1,1.688.521.768.768,0,0,1,.156.1v2.865a11.233,11.233,0,0,0-1.42-.414A31.592,31.592,0,0,0,25,30a31.592,31.592,0,0,0-6.58.609,11.233,11.233,0,0,0-1.42.414V28.158a.767.767,0,0,1,.156-.1,7.744,7.744,0,0,1,1.688-.521A31.4,31.4,0,0,1,25,27Zm0,5a30.025,30.025,0,0,1,6.146.563A7.186,7.186,0,0,1,32.5,33a7.186,7.186,0,0,1-1.35.438A30.025,30.025,0,0,1,25,34a30.025,30.025,0,0,1-6.146-.562A7.186,7.186,0,0,1,17.5,33a7.186,7.186,0,0,1,1.35-.437A30.025,30.025,0,0,1,25,32Z" transform="translate(-1 -0.999)" fill="#8e24aa"/></svg>