<svg xmlns="http://www.w3.org/2000/svg" width="14.379" height="14.408" viewBox="0 0 14.379 14.408"><g transform="translate(0.75 0.75)"><path d="M5.85.753a.753.753,0,1,1,.753.755A.754.754,0,0,1,5.85.753Zm-2.925,0a.752.752,0,1,1,.752.755A.753.753,0,0,1,2.925.753ZM0,.753a.753.753,0,1,1,.752.755A.753.753,0,0,1,0,.753Z" transform="translate(2.915 5.844)" fill="#e08fb8"/><path d="M6.452,0A6.451,6.451,0,0,0,0,6.464,6.843,6.843,0,0,0,.869,9.688a.679.679,0,0,1,.045.582L.483,11.718a.4.4,0,0,0,.528.5l1.3-.387a1.091,1.091,0,0,1,.959.233A6.447,6.447,0,1,0,6.452,0Z" fill="none" stroke="#e08fb8" stroke-linecap="round" stroke-linejoin="round" stroke-miterlimit="10" stroke-width="1.5"/></g></svg>