<svg xmlns="http://www.w3.org/2000/svg" width="50" height="50" viewBox="0 0 50 50"><path d="M9.813,0A1,1,0,0,0,9,1V3a1,1,0,1,0,2,0V2H46V25H41.906L43,23l-1.094-2H33v4H21.906A1,1,0,1,0,22,27H48v1H22a1,1,0,1,0,0,2H49a1,1,0,0,0,1-1V26a1,1,0,0,0-1-1H48V1a1,1,0,0,0-1-1H9.813ZM12,5a6,6,0,1,0,6,6A6.017,6.017,0,0,0,12,5Zm0,12H9.688a5.044,5.044,0,0,0-2.875.781A4.522,4.522,0,0,0,5,21.688v10.75a4.942,4.942,0,0,0-1.219,8.344A7.049,7.049,0,0,0,0,47v2a1,1,0,0,0,1,1H49a1,1,0,0,0,1-1V47a7.05,7.05,0,0,0-3.781-6.219,5,5,0,1,0-6.437,0A7.187,7.187,0,0,0,37,43.406a7.079,7.079,0,0,0-2.781-2.625,5,5,0,1,0-6.438,0A7.187,7.187,0,0,0,25,43.406a7.106,7.106,0,0,0-2.781-2.625A4.977,4.977,0,0,0,24,37a5.032,5.032,0,0,0-4-4.906V23l4.281-1.531.031-.031c.008,0,.023,0,.031,0a3.938,3.938,0,0,0,2.031-1.344h.031l5-6.469v-.031a2.857,2.857,0,0,0-.5-4,2.952,2.952,0,0,0-2.094-.562,2.711,2.711,0,0,0-1.906,1.063l-4.281,5.531L16,17ZM12,7a4,4,0,1,1-4,4A3.983,3.983,0,0,1,12,7Zm17.031,4.031a.824.824,0,0,1,.781,1.344c-.008.008.008.023,0,.031l-5,6.469v.031a2.6,2.6,0,0,1-1.094.625.461.461,0,0,0-.062.031l-5,1.781a1,1,0,0,0-.656.969v9.781A5.032,5.032,0,0,0,14,37a4.977,4.977,0,0,0,1.781,3.781A7.187,7.187,0,0,0,13,43.406a7.079,7.079,0,0,0-2.781-2.625A4.969,4.969,0,0,0,7,32V21.688c0-1.406.406-1.914.906-2.25A3.386,3.386,0,0,1,9.688,19H16a1.022,1.022,0,0,0,.219-.031l7.188-1.5A1.026,1.026,0,0,0,24,17.125l4.5-5.812A.768.768,0,0,1,29.031,11.031ZM7,34a2.945,2.945,0,1,1-.906.125c.059-.02.129-.016.188-.031a1.2,1.2,0,0,0,.125-.031A2.969,2.969,0,0,1,7,34Zm24,0a3,3,0,1,1-3,3A2.986,2.986,0,0,1,31,34Zm12,0a3,3,0,1,1-3,3A2.986,2.986,0,0,1,43,34Zm-24.25.031h.031a1.017,1.017,0,0,0,.406,0h.031a2.984,2.984,0,1,1-.469,0ZM7,42a5.01,5.01,0,0,1,5,5v1H2V47A5.01,5.01,0,0,1,7,42Zm12,0a5.01,5.01,0,0,1,5,5v1H14V47A5.01,5.01,0,0,1,19,42Zm12,0a5.01,5.01,0,0,1,5,5v1H26V47A5.01,5.01,0,0,1,31,42Zm12,0a5.01,5.01,0,0,1,5,5v1H38V47A5.01,5.01,0,0,1,43,42Z" fill="#e08fb8"/></svg>