<svg xmlns="http://www.w3.org/2000/svg" width="11.746" height="11.746" viewBox="0 0 11.746 11.746"><path d="M5.656,11.682l-.144-.091A20.586,20.586,0,0,1,1.986,8.7,7.7,7.7,0,0,1,.239,5.768a5.031,5.031,0,0,1,.118-3.4A3.774,3.774,0,0,1,2.633.195,3.681,3.681,0,0,1,5.716.529l.155.1.157-.1A3.686,3.686,0,0,1,8.954.146L9.11.195a3.78,3.78,0,0,1,2.279,2.176,5.046,5.046,0,0,1,.118,3.407A7.791,7.791,0,0,1,9.759,8.706,20.6,20.6,0,0,1,6.238,11.59l-.135.088a.413.413,0,0,1-.448,0ZM2.9,1.055A2.919,2.919,0,0,0,1.13,2.764a4.072,4.072,0,0,0-.077,2.717A6.869,6.869,0,0,0,2.588,8.058a19.7,19.7,0,0,0,3.37,2.76l-.084-.056.274-.182a19.684,19.684,0,0,0,2.7-2.209l.31-.31a6.838,6.838,0,0,0,1.535-2.571,4.077,4.077,0,0,0-.076-2.725A2.923,2.923,0,0,0,8.847,1.055,2.856,2.856,0,0,0,7.932.9a2.886,2.886,0,0,0-1.8.633.413.413,0,0,1-.508.006l-.116-.087A2.884,2.884,0,0,0,3.813.9,2.847,2.847,0,0,0,2.9,1.055ZM8.685,4.39a1.214,1.214,0,0,0-.8-1.067.456.456,0,0,1-.279-.568.426.426,0,0,1,.54-.293,2.11,2.11,0,0,1,1.4,1.852.446.446,0,0,1-.392.488l-.037,0A.439.439,0,0,1,8.685,4.39Z" fill="#ff70a6"/></svg>