<svg xmlns="http://www.w3.org/2000/svg" width="12" height="12" viewBox="0 0 12 12"><path d="M2.661,12A2.766,2.766,0,0,1,0,9.255L0,9.12V5.947a2.784,2.784,0,0,1,2.526-2.87l.129,0H3.22a.47.47,0,0,1,.45.487.476.476,0,0,1-.389.483l-.061,0H2.655A1.822,1.822,0,0,0,.9,5.835l0,.112V9.12a1.849,1.849,0,0,0,1.657,1.9l.1,0H9.345A1.821,1.821,0,0,0,11.1,9.238l0-.112V5.954a1.848,1.848,0,0,0-1.657-1.9l-.1,0H8.78a.47.47,0,0,1-.45-.487.476.476,0,0,1,.389-.483l.061,0h.56A2.764,2.764,0,0,1,12,5.819l0,.136V9.126A2.784,2.784,0,0,1,9.47,12l-.125,0ZM5.99,8.794H5.955l-.034-.005h0l-.008,0h0l-.008,0h0l-.007,0h0l-.006,0-.009,0h0A.435.435,0,0,1,5.732,8.7l0,0a.464.464,0,0,1-.044-.042l0,0-1.75-1.9a.515.515,0,0,1,0-.689.425.425,0,0,1,.586-.046l.051.047L5.55,7.127V.487A.47.47,0,0,1,6,0a.464.464,0,0,1,.446.421l0,.066V7.127l.981-1.065a.426.426,0,0,1,.586-.049l.05.047a.517.517,0,0,1,.045.634l-.043.054-1.75,1.9a.44.44,0,0,1-.217.131h0l-.01,0h0l-.009,0h0l-.008,0H5.99Z" fill="#fff"/></svg>