<svg xmlns="http://www.w3.org/2000/svg" width="11.745" height="11.745" viewBox="0 0 11.745 11.745"><path d="M3.123,11.069l-.027-.01a.01.01,0,0,1-.006-.007l-.4-.227a.44.44,0,0,0-.162-.032.273.273,0,0,0-.066.007,10.384,10.384,0,0,1-1.275.368l-.079.01H1.084a.657.657,0,0,1-.518-.208.808.808,0,0,1-.173-.54l.012-.1A10.822,10.822,0,0,1,.8,9.04.311.311,0,0,0,.776,8.8l-.108-.21A5.876,5.876,0,0,1,5.884,0h.023A5.873,5.873,0,1,1,3.123,11.069Zm-.1-.992c.054.026.123.063.217.116l.248.143h0l.169.086a5.068,5.068,0,0,0,5.418-.646l.129-.11A5.054,5.054,0,0,0,5.9.819l-.165,0A5.052,5.052,0,0,0,1.4,8.215l.106.207a1.142,1.142,0,0,1,.074.884A10.418,10.418,0,0,0,1.2,10.527l.055-.216.232-.061c.168-.047.325-.094.481-.146l.246-.085a1.2,1.2,0,0,1,.318-.043A1.282,1.282,0,0,1,3.023,10.077Zm4.816-4.2a.67.67,0,1,1,.67.67A.67.67,0,0,1,7.839,5.873Zm-2.606,0a.67.67,0,1,1,.67.67A.67.67,0,0,1,5.233,5.873Zm-2.606,0a.67.67,0,1,1,.67.67A.67.67,0,0,1,2.628,5.873Z" fill="#ff70a6"/></svg>