<svg xmlns="http://www.w3.org/2000/svg" width="15.919" height="20" viewBox="0 0 15.919 20"><path d="M4.323,20A4.442,4.442,0,0,1,0,15.458V11.169A4.539,4.539,0,0,1,2.9,6.878v-1.6A5.175,5.175,0,0,1,7.968,0a5.167,5.167,0,0,1,5.042,5.082l0,.219V6.878a4.54,4.54,0,0,1,2.9,4.291v4.288A4.442,4.442,0,0,1,11.6,20Zm-2.9-8.831v4.288a2.975,2.975,0,0,0,2.9,3.042H11.6a2.975,2.975,0,0,0,2.9-3.042V11.169a2.975,2.975,0,0,0-2.9-3.042H4.323A2.975,2.975,0,0,0,1.428,11.169ZM11.587,6.627V5.3A3.714,3.714,0,0,0,7.966,1.5,3.7,3.7,0,0,0,4.338,5.086l-.005.2V6.627Zm-4.335,7.9-.006-.1V12.2a.713.713,0,0,1,1.421-.1l.006.1v2.221a.713.713,0,0,1-1.421.1Z" fill="#e8e8e8"/></svg>