<svg xmlns="http://www.w3.org/2000/svg" width="17" height="14" viewBox="0 0 17 14"><path d="M8.255,14C4.936,13.882,1.914,11.468.173,7.539L.052,7.258a.668.668,0,0,1,0-.515A12.464,12.464,0,0,1,3.616,1.8,7.8,7.8,0,0,1,8.5,0l.243,0c3.319.114,6.341,2.529,8.082,6.458l.119.274a.67.67,0,0,1,0,.521A12.473,12.473,0,0,1,13.384,12.2,7.8,7.8,0,0,1,8.5,14ZM4.531,2.729A10.733,10.733,0,0,0,1.467,6.708L1.334,7l.144.316A10.9,10.9,0,0,0,4.35,11.131,6.678,6.678,0,0,0,8.058,12.68l.226.012.219,0,.217,0a6.64,6.64,0,0,0,3.939-1.57,11.056,11.056,0,0,0,3-4.1L15.665,7a11.176,11.176,0,0,0-2.911-4.043A6.721,6.721,0,0,0,8.937,1.32l-.226-.012-.2,0A6.533,6.533,0,0,0,4.531,2.729ZM5.175,7A3.326,3.326,0,1,1,8.5,10.4,3.367,3.367,0,0,1,5.175,7ZM6.45,7A2.05,2.05,0,1,0,8.5,4.9,2.075,2.075,0,0,0,6.45,7Z" fill="#8e24aa"/></svg>