<svg xmlns="http://www.w3.org/2000/svg" width="20" height="18" viewBox="0 0 20 18"><path d="M5.456,18A5.249,5.249,0,0,1,1.54,16.307,6.11,6.11,0,0,1,0,12.141V5.859A6.11,6.11,0,0,1,1.54,1.693,5.249,5.249,0,0,1,5.456,0h9.069a5.556,5.556,0,0,1,5.466,5.859l0,6.237a5.623,5.623,0,0,1-1.476,4.131,5.558,5.558,0,0,1-4,1.773ZM1.517,5.859v6.282a4.012,4.012,0,0,0,3.938,4.331h9.052A4.023,4.023,0,0,0,17.4,15.185a4.091,4.091,0,0,0,1.071-3.044V5.814a4.081,4.081,0,0,0-1.072-3,4.023,4.023,0,0,0-2.894-1.287H5.456A4.012,4.012,0,0,0,1.517,5.859Zm6.865,4.279-.161-.118-4.135-3.3a.769.769,0,0,1-.122-1.074.755.755,0,0,1,.973-.187l.094.063,4.129,3.3a1.377,1.377,0,0,0,1.58.088l.118-.082,4.1-3.3a.754.754,0,0,1,1.066.119.769.769,0,0,1-.035,1l-.083.076L11.8,10.023a2.891,2.891,0,0,1-3.416.114Z" fill="#8e24aa"/></svg>