<svg xmlns="http://www.w3.org/2000/svg" width="13" height="15" viewBox="0 0 13 15"><g transform="translate(0 0)"><path d="M5.746,14.762,5.7,14.726l-.316-.209a15.753,15.753,0,0,1-3.467-3.192l-.242-.31A7.929,7.929,0,0,1,0,6.395l0-.214A6.314,6.314,0,0,1,1.977,1.8,6.524,6.524,0,0,1,6.5,0h.022l.2,0a6.512,6.512,0,0,1,4.458,1.949A6.3,6.3,0,0,1,13,6.414v.077a8.991,8.991,0,0,1-2.844,5.919,16.125,16.125,0,0,1-2.864,2.321l-.038.031a1.312,1.312,0,0,1-1.508,0ZM6.334,1.141a5.358,5.358,0,0,0-3.66,1.584,5.182,5.182,0,0,0-1.518,3.65l.014.268A6.812,6.812,0,0,0,2.6,10.328a14.548,14.548,0,0,0,3.749,3.453l.063.047a.14.14,0,0,0,.182,0l.065-.048a14.943,14.943,0,0,0,2.663-2.157A7.886,7.886,0,0,0,11.843,6.48l0-.249a5.187,5.187,0,0,0-1.61-3.6A5.358,5.358,0,0,0,6.518,1.138ZM4.023,6.487A2.477,2.477,0,1,1,6.5,8.923,2.459,2.459,0,0,1,4.023,6.487Zm1.157,0A1.32,1.32,0,1,0,6.5,5.189,1.31,1.31,0,0,0,5.18,6.487Z" fill="#e08fb8"/></g></svg>