<svg xmlns="http://www.w3.org/2000/svg" width="20" height="20.004" viewBox="0 0 20 20.004"><g transform="translate(0 20.004) rotate(-90)"><g transform="translate(0.004 0)"><path d="M15.42,20h0a5.464,5.464,0,0,1-2.28-.57,25.6,25.6,0,0,1-7.228-5.339A24.623,24.623,0,0,1,.582,6.884l-.1-.239C-.2,5.027-.162,3.688.589,2.668,1.246,1.58,3.055,0,4.395,0L4.47,0,4.5,0A2.248,2.248,0,0,1,5.891.713,15.183,15.183,0,0,1,8.5,4.346a2.426,2.426,0,0,1-.461,1.911l-.11.194c-.2.369-.241.529-.175.714a8.933,8.933,0,0,0,5.053,5.068.544.544,0,0,0,.189.036,1.5,1.5,0,0,0,.685-.275l.248-.141a2.511,2.511,0,0,1,1.261-.405,2.258,2.258,0,0,1,.462.052,15.173,15.173,0,0,1,3.631,2.613A2.246,2.246,0,0,1,20,15.54c.046,1.317-1.556,3.238-2.618,3.842A3.3,3.3,0,0,1,15.42,20ZM4.377,1.462h0l.013,0-.088,0a5.366,5.366,0,0,0-2.5,2.01l-.078.116a2.864,2.864,0,0,0,.2,2.71l.1.244a24.5,24.5,0,0,0,5.058,6.646,23.981,23.981,0,0,0,6.641,4.9l.212.094a3.746,3.746,0,0,0,1.451.344,2.006,2.006,0,0,0,1.2-.377l.05-.032a7.6,7.6,0,0,0,1.078-1.027,2.851,2.851,0,0,0,.819-1.468.93.93,0,0,0-.3-.492,19.641,19.641,0,0,0-2.883-2.2.6.6,0,0,0-.125-.014,1.664,1.664,0,0,0-.76.31l-.246.138a2.509,2.509,0,0,1-1.208.375,2.141,2.141,0,0,1-.735-.143A10.41,10.41,0,0,1,6.394,7.69a2.232,2.232,0,0,1,.346-2.1l.112-.2c.211-.382.26-.549.22-.746a19.731,19.731,0,0,0-2.2-2.885A.934.934,0,0,0,4.377,1.462Z" fill="#8e24aa"/></g></g></svg>