<svg xmlns="http://www.w3.org/2000/svg" width="13.753" height="14.69" viewBox="0 0 13.753 14.69"><g transform="translate(4.82 0) rotate(50)"><path d="M4.179,6.292H2.068A2.077,2.077,0,0,1,0,4.211V2.081A2.077,2.077,0,0,1,2.068,0H4.179A2.076,2.076,0,0,1,6.246,2.081V4.211A2.076,2.076,0,0,1,4.179,6.292ZM2.068.969a1.106,1.106,0,0,0-1.1,1.112V4.211a1.106,1.106,0,0,0,1.1,1.112H4.179a1.106,1.106,0,0,0,1.1-1.112V2.081A1.106,1.106,0,0,0,4.179.969Z" transform="translate(7.651 0)" fill="#ff70a6"/><path d="M4.179,6.292H2.068A2.077,2.077,0,0,1,0,4.211V2.081A2.077,2.077,0,0,1,2.068,0H4.179A2.077,2.077,0,0,1,6.246,2.081V4.211A2.077,2.077,0,0,1,4.179,6.292ZM2.068.969a1.106,1.106,0,0,0-1.1,1.112V4.211a1.106,1.106,0,0,0,1.1,1.112H4.179a1.106,1.106,0,0,0,1.1-1.112V2.081A1.106,1.106,0,0,0,4.179.969Z" transform="translate(0 0)" fill="#ff70a6"/></g><path d="M5.64,0H.613A.609.609,0,0,0,0,.605a.609.609,0,0,0,.613.605H5.64A.609.609,0,0,0,6.253.605.609.609,0,0,0,5.64,0" transform="translate(5.331 4.561) rotate(50)" fill="#ff70a6"/></svg>