<svg xmlns="http://www.w3.org/2000/svg" width="135" height="84.387" viewBox="0 0 135 84.387"><g transform="translate(0)"><g transform="translate(69.139 12.247)"><path d="M102.8,46.912a.776.776,0,0,1-.737-.478.828.828,0,0,1,.151-.887.758.758,0,0,1,.85-.187.806.806,0,0,1,.487.747A.793.793,0,0,1,102.8,46.912Z" transform="translate(-95.488 -22.093)" fill="#e08fb8"/><path d="M41.569,58.826a.709.709,0,0,1,.072-.714.653.653,0,0,1,.646-.259.673.673,0,0,1,.518.477c.837,2.231,4.533,2.913,8.068,1.487a9.482,9.482,0,0,0,4.234-3.188,3.946,3.946,0,0,0,.791-3.443,11.939,11.939,0,0,1-3.988.737c-3,0-5.523-1.295-6.38-3.595a.7.7,0,0,1,.4-.842.656.656,0,0,1,.84.347c1,2.672,5.084,3.533,9.092,1.914a10.189,10.189,0,0,0,4.652-3.6,4.606,4.606,0,0,0,.784-4.173.693.693,0,0,1,.424-.771.654.654,0,0,1,.805.3,5.845,5.845,0,0,1-.93,5.454,11.218,11.218,0,0,1-4.46,3.732,5.25,5.25,0,0,1-.95,4.731,10.839,10.839,0,0,1-4.825,3.664,11.408,11.408,0,0,1-4.22.868C44.487,61.966,42.327,60.844,41.569,58.826Z" transform="translate(-15.056 -21.427)" fill="#e08fb8"/><path d="M97.875,85.753a.5.5,0,0,1-.173,0c-7.185-1.976-7.975-11.576-7.975-11.982a.706.706,0,0,1,.146-.522.658.658,0,0,1,.465-.25.673.673,0,0,1,.711.634c0,.09.724,9.028,7,10.756a.69.69,0,0,1,.578.778.675.675,0,0,1-.751.6Z" transform="translate(-82.404 -30.722)" fill="#e08fb8"/><path d="M82.685,92.431h-.073a19.7,19.7,0,0,0-3.223-.076.674.674,0,0,1-.718-.634.684.684,0,0,1,.611-.744,20.179,20.179,0,0,1,3.469.055.69.69,0,0,1-.066,1.377Z" transform="translate(-60.054 -36.305)" fill="#e08fb8"/><path d="M72.159,60.358a12.107,12.107,0,0,0,6.65-5.6.652.652,0,0,1,.656-.392.664.664,0,0,1,.578.489c1.9,6.6-2.691,10.162-4.726,11.354a7.835,7.835,0,0,1,1.792,7.856,7.51,7.51,0,0,1-5.665,5.074,4.389,4.389,0,0,1-3.2-1.047A4.8,4.8,0,0,1,67.59,80.7c-1.451,2.534-4.93,3.016-5.074,3.036H62.43a.655.655,0,0,1-.584-.386c-5.79-12.262-12.1-11.932-19.4-11.533-3.939.213-8.422.454-13.168-1.336A13.967,13.967,0,0,1,21.054,62.6,19.6,19.6,0,0,1,21.415,48a6.063,6.063,0,0,0,.263-4.551c-.893-2.375-3.381-3.8-4.785-4.434a1.237,1.237,0,0,1,0-2.21h0l.328-.158a6.133,6.133,0,0,0,2.757-2.665,6.281,6.281,0,0,1,5.475-3.326c3.893,0,5.947,3.622,7.024,7.1,1.713-4.537,5.632-8.365,8.179-9.495C53.5,22.752,56.45,16.3,57.067,12.961a1.615,1.615,0,0,1,1.19-1.325,1.533,1.533,0,0,1,1.626.636,29.687,29.687,0,0,1,1.91,3.126.707.707,0,0,1-.249.936.63.63,0,0,1-.5.063.663.663,0,0,1-.4-.332,27.691,27.691,0,0,0-1.825-2.981.231.231,0,0,0-.263-.1.263.263,0,0,0-.243.269C57.658,16.872,54.54,23.8,41.128,29.568c-2.685,1.191-7.063,5.68-8.081,10.727.125.613.223,1.191.3,1.7A31.707,31.707,0,0,1,48,29.492c13.267-5.226,16.877-12.62,17.823-16.572a1.555,1.555,0,0,1,1.313-1.2,1.572,1.572,0,0,1,1.6.806c7.74,13.812,1.726,24.139.742,25.668-.112,14.638-11.744,18.59-16.753,19.623C60.5,61.391,67.038,62.245,72.159,60.358ZM49.78,57.315a.667.667,0,0,1,.6-.551,23.453,23.453,0,0,0,8.921-2.754c5.862-3.319,8.855-8.71,8.855-16.042a.71.71,0,0,1,.138-.42c.3-.413,7.221-10.238-.709-24.332a.265.265,0,0,0-.276-.138.234.234,0,0,0-.2.186c-1.044,4.207-4.825,12.083-18.65,17.516a30.609,30.609,0,0,0-14.941,13.6.648.648,0,0,1-.716.365.679.679,0,0,1-.525-.633c0-.117-.761-12.083-6.86-12.083a4.985,4.985,0,0,0-4.339,2.637A7.431,7.431,0,0,1,17.739,37.9c1.628.785,4.162,2.389,5.16,5.04a7.459,7.459,0,0,1-.276,5.611,18.233,18.233,0,0,0-.361,13.509,12.625,12.625,0,0,0,7.457,7.119c4.5,1.7,8.639,1.473,12.656,1.26,7.352-.4,14.3-.778,20.488,11.842a5.771,5.771,0,0,0,3.67-2.293,4.314,4.314,0,0,0,.039-3.69.7.7,0,0,1,.309-.854.632.632,0,0,1,.309-.076.648.648,0,0,1,.532.289c.656.978,2.4,2.327,3.532,2.121a6.183,6.183,0,0,0,4.6-4.172c1.379-4.131-2.048-6.988-2.088-7.016a.7.7,0,0,1-.256-.64.684.684,0,0,1,.407-.551c.256-.11,5.908-2.6,5.173-8.586a13.93,13.93,0,0,1-6.473,4.82c-5.908,2.2-13.477,1.005-22.51-3.553A.7.7,0,0,1,49.78,57.315Z" transform="translate(-16.211 -11.594)" fill="#e08fb8"/><path d="M34.439,90.028c3.536,1.811,12.089,1.019,12.176,1.012a.672.672,0,0,1,.718.62.682.682,0,0,1-.6.751,46.459,46.459,0,0,1-8.64-.041,29.28,29.28,0,0,1,4.134,3.257.706.706,0,0,1,0,.978.658.658,0,0,1-.944-.028,48.821,48.821,0,0,0-7.417-5.33.7.7,0,0,1-.265-.922.654.654,0,0,1,.884-.3Z" transform="translate(5.639 -36.003)" fill="#e08fb8"/><path d="M20.4,37.405a.649.649,0,0,1,.93.124,7.072,7.072,0,0,1,1.329,5.358,7.234,7.234,0,0,1-2.911,4.731.649.649,0,0,1-.385.131.667.667,0,0,1-.638-.48.7.7,0,0,1,.253-.774,5.836,5.836,0,0,0,2.366-3.829,5.656,5.656,0,0,0-1.083-4.3.708.708,0,0,1-.123-.512.693.693,0,0,1,.263-.452Z" transform="translate(39.894 -19.59)" fill="#e08fb8"/><path d="M14.761,54.016h-.166a.675.675,0,0,1-.751-.6.69.69,0,0,1,.578-.778,4.913,4.913,0,0,0,2.924-2.149,4.429,4.429,0,0,0,.518-3.443.711.711,0,0,1,.066-.525.668.668,0,0,1,.406-.322.645.645,0,0,1,.5.073.687.687,0,0,1,.306.422,5.849,5.849,0,0,1-.665,4.511A6.246,6.246,0,0,1,14.761,54.016Z" transform="translate(46.526 -22.367)" fill="#e08fb8"/></g><g transform="translate(0 12.247)"><path d="M102.751,46.912a.776.776,0,0,0,.737-.478.828.828,0,0,0-.151-.887.758.758,0,0,0-.85-.187.806.806,0,0,0-.487.747.793.793,0,0,0,.751.806Z" transform="translate(-44.206 -22.093)" fill="#e08fb8"/><path d="M62.79,58.826a.709.709,0,0,0-.072-.714.653.653,0,0,0-.646-.259.673.673,0,0,0-.518.477c-.837,2.231-4.533,2.913-8.068,1.487a9.482,9.482,0,0,1-4.234-3.188,3.946,3.946,0,0,1-.791-3.443,11.939,11.939,0,0,0,3.988.737c3,0,5.523-1.295,6.38-3.595a.7.7,0,0,0-.4-.842.656.656,0,0,0-.84.347c-1,2.672-5.084,3.533-9.092,1.914a10.188,10.188,0,0,1-4.652-3.6,4.606,4.606,0,0,1-.784-4.173.693.693,0,0,0-.424-.771.654.654,0,0,0-.805.3,5.845,5.845,0,0,0,.93,5.454,11.218,11.218,0,0,0,4.46,3.732,5.25,5.25,0,0,0,.95,4.731A10.839,10.839,0,0,0,53,61.085a11.408,11.408,0,0,0,4.22.868C59.872,61.966,62.032,60.844,62.79,58.826Z" transform="translate(-23.442 -21.427)" fill="#e08fb8"/><path d="M90.478,85.753a.5.5,0,0,0,.173,0c7.185-1.976,7.975-11.576,7.975-11.982a.706.706,0,0,0-.146-.522.657.657,0,0,0-.465-.25.673.673,0,0,0-.711.634c0,.09-.724,9.028-7,10.756a.69.69,0,0,0-.578.778.675.675,0,0,0,.751.6Z" transform="translate(-40.088 -30.722)" fill="#e08fb8"/><path d="M79.367,92.431h.073a19.7,19.7,0,0,1,3.223-.076.674.674,0,0,0,.718-.634.684.684,0,0,0-.611-.744,20.179,20.179,0,0,0-3.469.055.69.69,0,0,0,.066,1.377Z" transform="translate(-36.138 -36.305)" fill="#e08fb8"/><path d="M24.547,60.358a12.107,12.107,0,0,1-6.65-5.6.652.652,0,0,0-.656-.392.664.664,0,0,0-.578.489c-1.9,6.6,2.691,10.162,4.726,11.354A7.835,7.835,0,0,0,19.6,74.06a7.51,7.51,0,0,0,5.665,5.074,4.389,4.389,0,0,0,3.2-1.047,4.8,4.8,0,0,0,.656,2.609c1.451,2.534,4.93,3.016,5.074,3.036h.085a.655.655,0,0,0,.584-.386c5.79-12.262,12.1-11.932,19.4-11.533,3.939.213,8.422.454,13.168-1.336A13.967,13.967,0,0,0,75.652,62.6,19.6,19.6,0,0,0,75.291,48a6.063,6.063,0,0,1-.263-4.551c.893-2.375,3.381-3.8,4.785-4.434a1.237,1.237,0,0,0,0-2.21h0l-.328-.158a6.133,6.133,0,0,1-2.757-2.665,6.281,6.281,0,0,0-5.475-3.326c-3.893,0-5.947,3.622-7.024,7.1-1.713-4.537-5.632-8.365-8.179-9.495C43.2,22.752,40.256,16.3,39.639,12.961a1.615,1.615,0,0,0-1.19-1.325,1.533,1.533,0,0,0-1.626.636,29.686,29.686,0,0,0-1.91,3.126.707.707,0,0,0,.249.936.63.63,0,0,0,.5.063.663.663,0,0,0,.4-.332,27.692,27.692,0,0,1,1.825-2.981.231.231,0,0,1,.263-.1.263.263,0,0,1,.243.269c.656,3.622,3.775,10.548,17.186,16.318,2.685,1.191,7.063,5.68,8.081,10.727-.125.613-.223,1.191-.3,1.7A31.707,31.707,0,0,0,48.7,29.492C35.438,24.267,31.827,16.872,30.882,12.92a1.555,1.555,0,0,0-1.313-1.2,1.572,1.572,0,0,0-1.6.806c-7.74,13.812-1.726,24.139-.742,25.668.112,14.638,11.744,18.59,16.753,19.623C36.206,61.391,29.668,62.245,24.547,60.358Zm22.378-3.043a.667.667,0,0,0-.6-.551A23.453,23.453,0,0,1,37.4,54.01c-5.862-3.319-8.855-8.71-8.855-16.042a.71.71,0,0,0-.138-.42c-.3-.413-7.221-10.238.709-24.332a.265.265,0,0,1,.276-.138.234.234,0,0,1,.2.186c1.044,4.207,4.825,12.083,18.65,17.516a30.609,30.609,0,0,1,14.941,13.6.648.648,0,0,0,.716.365.679.679,0,0,0,.525-.633c0-.117.761-12.083,6.86-12.083a4.985,4.985,0,0,1,4.339,2.637A7.431,7.431,0,0,0,78.967,37.9c-1.628.785-4.162,2.389-5.16,5.04a7.459,7.459,0,0,0,.276,5.611,18.233,18.233,0,0,1,.361,13.509,12.625,12.625,0,0,1-7.457,7.119c-4.5,1.7-8.639,1.473-12.656,1.26-7.352-.4-14.3-.778-20.488,11.842a5.771,5.771,0,0,1-3.67-2.293,4.314,4.314,0,0,1-.039-3.69.7.7,0,0,0-.309-.854.632.632,0,0,0-.309-.076.648.648,0,0,0-.532.289c-.656.978-2.4,2.327-3.532,2.121a6.183,6.183,0,0,1-4.6-4.172c-1.379-4.131,2.048-6.988,2.088-7.016a.7.7,0,0,0,.256-.64.684.684,0,0,0-.407-.551c-.256-.11-5.908-2.6-5.173-8.586a13.93,13.93,0,0,0,6.473,4.82c5.908,2.2,13.477,1.005,22.51-3.553A.7.7,0,0,0,46.926,57.315Z" transform="translate(-14.634 -11.594)" fill="#e08fb8"/><path d="M46.422,90.028c-3.536,1.811-12.089,1.019-12.176,1.012a.672.672,0,0,0-.718.62.682.682,0,0,0,.6.751,46.459,46.459,0,0,0,8.64-.041,29.28,29.28,0,0,0-4.134,3.257.706.706,0,0,0,0,.978.658.658,0,0,0,.944-.028,48.822,48.822,0,0,1,7.417-5.33.7.7,0,0,0,.265-.922.654.654,0,0,0-.884-.3Z" transform="translate(-20.639 -36.003)" fill="#e08fb8"/><path d="M21.036,37.405a.649.649,0,0,0-.93.124,7.072,7.072,0,0,0-1.329,5.358,7.234,7.234,0,0,0,2.911,4.731.649.649,0,0,0,.385.131.667.667,0,0,0,.638-.48.7.7,0,0,0-.253-.774,5.836,5.836,0,0,1-2.366-3.829,5.656,5.656,0,0,1,1.083-4.3.708.708,0,0,0,.123-.512.693.693,0,0,0-.263-.452Z" transform="translate(-15.465 -19.59)" fill="#e08fb8"/><path d="M18.412,54.016h.166a.675.675,0,0,0,.751-.6.69.69,0,0,0-.578-.778,4.913,4.913,0,0,1-2.924-2.149,4.429,4.429,0,0,1-.518-3.443.711.711,0,0,0-.066-.525.668.668,0,0,0-.406-.322.645.645,0,0,0-.5.073.687.687,0,0,0-.306.422,5.849,5.849,0,0,0,.665,4.511A6.246,6.246,0,0,0,18.412,54.016Z" transform="translate(-13.838 -22.367)" fill="#e08fb8"/></g><path d="M90.516,58.65a8.233,8.233,0,0,0-7.151,4.426,8.233,8.233,0,0,0-7.151-4.426,8.79,8.79,0,0,0-8.345,9.164v1.014c.659,7.467,14.358,16.339,14.941,16.709a.923.923,0,0,0,1,0c.583-.37,14.282-9.242,14.932-16.69V67.794a8.776,8.776,0,0,0-8.223-9.144Zm6.445,9.563v.439c-.452,5.177-9.5,12.215-13.558,14.906C79.348,80.867,70.3,73.809,69.836,68.633v-.838A6.873,6.873,0,0,1,76.3,60.6a6.649,6.649,0,0,1,6.238,5.313.933.933,0,0,0,1.825,0A6.65,6.65,0,0,1,90.6,60.6a6.857,6.857,0,0,1,6.37,7.165C96.971,67.833,96.961,68.087,96.961,68.213Z" transform="translate(-18.152 -58.65)" fill="#e08fb8"/></g></svg>