<svg xmlns="http://www.w3.org/2000/svg" width="24.285" height="30.356" viewBox="0 0 24.285 30.356"><path d="M16.74,22.868v2.81l1.644.336a5.913,5.913,0,0,0,.442,1.126l-.941,1.472L19.758,30.6l1.388-.993a5.677,5.677,0,0,0,1.062.464l.317,1.743h2.65l.312-1.743a5.534,5.534,0,0,0,1.066-.464l1.383.993,1.877-1.985-.941-1.472a6.239,6.239,0,0,0,.442-1.126l1.639-.336v-2.81l-1.644-.331a5.823,5.823,0,0,0-.438-1.126l.941-1.472-1.877-1.985-1.383,1a5.263,5.263,0,0,0-1.066-.469l-.312-1.743h-2.65l-.317,1.743a5.565,5.565,0,0,0-1.062.469l-1.388-1L17.886,19.94l.941,1.472a6.154,6.154,0,0,0-.442,1.126Zm2.347-2.805.787-.835,1.239.889.256-.163a4.65,4.65,0,0,1,1.351-.6l.293-.074.279-1.556H24.4l.284,1.561.293.069a4.48,4.48,0,0,1,1.351.6l.256.163,1.239-.889.782.835-.838,1.309.158.272a5.341,5.341,0,0,1,.559,1.437l.07.306,1.467.3v1.175l-1.467.3-.07.311a5.141,5.141,0,0,1-.559,1.437l-.158.272.838,1.309-.782.835-1.239-.889-.256.163a4.48,4.48,0,0,1-1.351.6l-.293.074L24.4,30.824H23.293l-.279-1.556-.293-.074a4.521,4.521,0,0,1-1.351-.6l-.256-.163-1.239.889-.787-.835.843-1.309-.158-.272a5.083,5.083,0,0,1-.559-1.437l-.07-.311-1.472-.3V23.688l1.467-.3.075-.306a5.191,5.191,0,0,1,.559-1.437l.158-.272Z" transform="translate(-11.704 -9.098)" fill="#e08fb8"/><path d="M28.648,31.926a2.8,2.8,0,0,0,2.612-2.943,2.8,2.8,0,0,0-2.612-2.943,2.8,2.8,0,0,0-2.608,2.943A2.8,2.8,0,0,0,28.648,31.926Z" transform="translate(-16.505 -13.805)" fill="#e08fb8"/><path d="M26.929,46.036,20.974,48.52a3.463,3.463,0,0,1-.7.207,3.041,3.041,0,0,0,.621-1.867v-.494h-3.81c-1.424,0-2.032-1.136-2.6-1.6a3.344,3.344,0,0,0-2.381-1.022H11.09V42.53H5.23V51.9h5.86v-1.21h.984a1.071,1.071,0,0,1,.581.173l3.066,1.921a1.965,1.965,0,0,0,1.039.3,1.814,1.814,0,0,0,.322-.03c5.07-.869,7.865-2.789,12.433-4.751v-.331A1.931,1.931,0,0,0,26.929,46.036ZM8.954,49.992a.743.743,0,1,1,.68-.741A.715.715,0,0,1,8.954,49.992Zm7.983,2.089a1.1,1.1,0,0,1-.762-.153L13.109,50a1.938,1.938,0,0,0-1.034-.3H11.09V44.727h1.016a2.481,2.481,0,0,1,1.76.756c.512.411,1.354,1.872,3.22,1.872h2.844a1.79,1.79,0,0,1-1.7,1.422H16.443v.988H19.7a4.146,4.146,0,0,0,1.6-.321l5.951-2.484a.986.986,0,0,1,1.32.706C24.558,49.384,21.81,51.242,16.937,52.081Z" transform="translate(-5.23 -22.727)" fill="#e08fb8"/><path d="M23.659,1.285V2.5h-.984a1.086,1.086,0,0,1-.585-.173L19.028.4A1.926,1.926,0,0,0,17.667.13C12.591,1,9.8,2.923,5.23,4.885v.326A1.931,1.931,0,0,0,7.82,7.147l6.568-2.741h.127a3.049,3.049,0,0,0-.667,1.916v.494h3.815a2.461,2.461,0,0,1,1.76.756c.537.43,1.365,1.872,3.22,1.872h1.016v1.21h5.856V1.285Zm0,7.171H22.643c-1.424,0-2.033-1.137-2.6-1.6a3.324,3.324,0,0,0-2.381-1.022H14.814a1.8,1.8,0,0,1,1.7-1.422H18.3V3.419H14.22L7.493,6.224a.982.982,0,0,1-1.315-.706C10.19,3.8,12.939,1.942,17.808,1.1a1.106,1.106,0,0,1,.767.153l3.066,1.926a1.937,1.937,0,0,0,1.034.3h.984V8.456ZM25.8,4.673a.712.712,0,0,1-.68-.741.683.683,0,1,1,1.361,0A.715.715,0,0,1,25.8,4.673Z" transform="translate(-5.23 -0.1)" fill="#e08fb8"/></svg>