<svg xmlns="http://www.w3.org/2000/svg" width="21.5" height="21.5" viewBox="0 0 21.5 21.5"><g transform="translate(0.75 0.75)"><ellipse cx="2.489" cy="2.337" rx="2.489" ry="2.337" transform="translate(15.022 7.303)" fill="none" stroke="#e08fb8" stroke-linejoin="bevel" stroke-width="1.5"/><path d="M12.086,4h2.478V7.877A5.613,5.613,0,0,1,8.782,13.3a5.828,5.828,0,0,1-.826-.054A5.551,5.551,0,0,1,3,7.877V4H5.478" transform="translate(-3 -4)" fill="none" stroke="#e08fb8" stroke-linejoin="bevel" stroke-width="1.5"/><path d="M21.565,18.31v2.326a5.613,5.613,0,0,1-5.782,5.428A5.613,5.613,0,0,1,10,20.637V15.93" transform="translate(-4.132 -6.064)" fill="none" stroke="#e08fb8" stroke-linejoin="bevel" stroke-width="1.5"/><rect width="3.734" height="1.168" transform="translate(3.754 9.662)" fill="none" stroke="#e08fb8" stroke-linejoin="bevel" stroke-width="1.5"/></g></svg>