<svg xmlns="http://www.w3.org/2000/svg" width="46" height="47.036" viewBox="0 0 46 47.036"><path d="M41.906.969A1.163,1.163,0,0,0,41.781,1,1,1,0,0,0,41,2V8.5A22.984,22.984,0,1,0,48,25a23.834,23.834,0,0,0-2.5-10.562l-1.781.906A21.781,21.781,0,0,1,46,25a21.069,21.069,0,1,1-6.344-15H33a1,1,0,1,0,0,2H43V2A1,1,0,0,0,41.906.969ZM24,9V23.281A1.992,1.992,0,0,0,25,27a1.926,1.926,0,0,0,.5-.062l6.781,6.781,1.438-1.437L26.938,25.5A1.926,1.926,0,0,0,27,25a1.982,1.982,0,0,0-1-1.719V9Z" transform="translate(-2 -0.964)" fill="#8e24aa"/></svg>