<svg id="Time_Circle" data-name="Time Circle" xmlns="http://www.w3.org/2000/svg" width="18.411" height="18.411" viewBox="0 0 18.411 18.411">
  <path id="Time_Circle-2" data-name="Time Circle" d="M0,9.205a9.205,9.205,0,1,1,9.205,9.205A9.215,9.215,0,0,1,0,9.205Zm1.381,0A7.825,7.825,0,1,0,9.205,1.381,7.834,7.834,0,0,0,1.381,9.205ZM12.094,12.55l-.084-.043L8.54,10.436a.691.691,0,0,1-.329-.49l-.007-.1V5.382a.69.69,0,0,1,1.374-.094l.006.094V9.451l3.134,1.871a.69.69,0,0,1,.282.862l-.042.084a.69.69,0,0,1-.863.283Z" fill="var(--)"/>
</svg>
