<svg xmlns="http://www.w3.org/2000/svg" width="16.465" height="13.408" viewBox="0 0 16.465 13.408"><g transform="translate(0.75 0.75)"><path d="M10.448,8.967a2.7,2.7,0,0,1-2.78,2.941h-4.9A2.7,2.7,0,0,1,0,8.967V2.949A2.707,2.707,0,0,1,2.78,0H7.668a2.711,2.711,0,0,1,2.78,2.949Z" fill="none" stroke="#8e24aa" stroke-linecap="round" stroke-linejoin="round" stroke-miterlimit="10" stroke-width="1.5"/><path d="M0,3.1,3.227.2A.786.786,0,0,1,4.516.869V6.811a.786.786,0,0,1-1.289.672L0,4.583" transform="translate(10.448 2.113)" fill="none" stroke="#8e24aa" stroke-linecap="round" stroke-linejoin="round" stroke-miterlimit="10" stroke-width="1.5"/></g></svg>